<?xml version="1.0" encoding="UTF-8"?>
<!DOCTYPE svg PUBLIC "-//W3C//DTD SVG 1.1//EN" "http://www.w3.org/Graphics/SVG/1.1/DTD/svg11.dtd">
<svg xmlns="http://www.w3.org/2000/svg" version="1.1" width="264px" height="56px" style="shape-rendering:geometricPrecision; text-rendering:geometricPrecision; image-rendering:optimizeQuality; fill-rule:evenodd; clip-rule:evenodd" xmlns:xlink="http://www.w3.org/1999/xlink">
<g><path style="opacity:1" fill="#fcfdfc" d="M -0.5,-0.5 C 87.5,-0.5 175.5,-0.5 263.5,-0.5C 263.5,18.1667 263.5,36.8333 263.5,55.5C 175.5,55.5 87.5,55.5 -0.5,55.5C -0.5,36.8333 -0.5,18.1667 -0.5,-0.5 Z"/></g>
<g><path style="opacity:1" fill="#51d9a9" d="M 118.5,33.5 C 118.5,33.8333 118.5,34.1667 118.5,34.5C 118.167,34.5 117.833,34.5 117.5,34.5C 117.665,30.8183 117.499,27.1516 117,23.5C 115.989,22.6634 114.822,22.33 113.5,22.5C 113.5,24.1667 113.5,25.8333 113.5,27.5C 111.821,27.7148 110.821,27.0481 110.5,25.5C 111.895,27.0544 112.561,26.721 112.5,24.5C 112.471,22.9707 111.804,21.804 110.5,21C 105.177,20.5006 99.8437,20.334 94.5,20.5C 94.5,19.1667 94.5,17.8333 94.5,16.5C 100.176,16.3339 105.843,16.5006 111.5,17C 118.027,20.5519 120.36,26.0519 118.5,33.5 Z"/></g>
<g><path style="opacity:1" fill="#72e1be" d="M 128.5,16.5 C 131.5,16.5 134.5,16.5 137.5,16.5C 137.5,17.8333 137.5,19.1667 137.5,20.5C 134.833,20.5 132.167,20.5 129.5,20.5C 129.5,23.5 129.5,26.5 129.5,29.5C 128.521,26.3752 128.187,23.0419 128.5,19.5C 131.247,19.8134 133.914,19.48 136.5,18.5C 133.694,17.8324 131.028,17.1657 128.5,16.5 Z"/></g>
<g><path style="opacity:1" fill="#21cf96" d="M 128.5,16.5 C 131.028,17.1657 133.694,17.8324 136.5,18.5C 133.914,19.48 131.247,19.8134 128.5,19.5C 128.187,23.0419 128.521,26.3752 129.5,29.5C 129.953,30.4584 130.619,31.2917 131.5,32C 134.146,32.4974 136.813,32.6641 139.5,32.5C 139.5,33.8333 139.5,35.1667 139.5,36.5C 136.167,36.5 132.833,36.5 129.5,36.5C 128.694,35.2719 127.694,34.2719 126.5,33.5C 126.5,32.8333 126.167,32.5 125.5,32.5C 124.54,25.9221 124.207,19.2554 124.5,12.5C 125.833,12.5 127.167,12.5 128.5,12.5C 128.5,13.8333 128.5,15.1667 128.5,16.5 Z"/></g>
<g><path style="opacity:1" fill="#2cd29b" d="M 82.5,33.5 C 81.6618,33.8417 81.3284,34.5084 81.5,35.5C 79.9582,36.3007 78.2915,36.634 76.5,36.5C 75.2206,34.8767 73.8872,33.21 72.5,31.5C 71.3508,35.8825 68.6841,37.2158 64.5,35.5C 61.5677,29.2452 58.2343,23.2452 54.5,17.5C 56.1667,16.1667 57.8333,16.1667 59.5,17.5C 61.9301,22.0366 64.5968,26.3699 67.5,30.5C 68.5,29.1667 69.5,27.8333 70.5,26.5C 68.5797,23.6612 66.9131,20.6612 65.5,17.5C 66.723,16.3861 68.0563,16.2195 69.5,17C 70.376,18.586 71.376,20.086 72.5,21.5C 73.624,20.086 74.624,18.586 75.5,17C 77.2588,16.2025 78.9255,16.3691 80.5,17.5C 78.3939,20.2685 76.7272,23.2685 75.5,26.5C 76.0909,28.2662 76.9242,29.9328 78,31.5C 80.6667,26.8333 83.3333,22.1667 86,17.5C 87.3561,16.6198 88.8561,16.2865 90.5,16.5C 88.1122,22.2765 85.4456,27.9432 82.5,33.5 Z"/></g>
<g><path style="opacity:1" fill="#29d19a" d="M 110.5,25.5 C 110.821,27.0481 111.821,27.7148 113.5,27.5C 113.5,25.8333 113.5,24.1667 113.5,22.5C 114.822,22.33 115.989,22.6634 117,23.5C 117.499,27.1516 117.665,30.8183 117.5,34.5C 117.179,36.0481 116.179,36.7148 114.5,36.5C 113.001,35.3218 112.001,33.6551 111.5,31.5C 110.717,33.2882 109.384,34.2882 107.5,34.5C 107.802,31.9407 107.468,29.6074 106.5,27.5C 106.5,26.8333 106.167,26.5 105.5,26.5C 104.791,25.596 103.791,25.2627 102.5,25.5C 97.6724,25.3852 96.3391,27.5519 98.5,32C 99.7932,32.49 101.127,32.6567 102.5,32.5C 102.5,33.8333 102.5,35.1667 102.5,36.5C 94.8515,36.6856 91.6848,33.019 93,25.5C 98.8762,20.2175 104.71,20.2175 110.5,25.5 Z"/></g>
<g><path style="opacity:1" fill="#f5fdfc" d="M 102.5,25.5 C 102.5,27.8333 102.5,30.1667 102.5,32.5C 101.127,32.6567 99.7932,32.49 98.5,32C 96.3391,27.5519 97.6724,25.3852 102.5,25.5 Z"/></g>
<g><path style="opacity:1" fill="#27d39a" d="M 181.5,29.5 C 184.833,29.5 188.167,29.5 191.5,29.5C 191.5,33.1667 191.5,36.8333 191.5,40.5C 188.167,40.5 184.833,40.5 181.5,40.5C 179.814,38.9835 177.981,37.6502 176,36.5C 170.9,36.8801 165.734,36.8801 160.5,36.5C 158.5,36.5 156.5,36.5 154.5,36.5C 152.435,36.4828 150.435,36.1495 148.5,35.5C 147.609,34.8902 146.609,34.5569 145.5,34.5C 143.613,27.4037 142.946,20.0704 143.5,12.5C 145.167,12.5 146.833,12.5 148.5,12.5C 148.5,13.8333 148.5,15.1667 148.5,16.5C 151.167,16.5 153.833,16.5 156.5,16.5C 156.5,17.8333 156.5,19.1667 156.5,20.5C 153.833,20.5 151.167,20.5 148.5,20.5C 148.335,23.8499 148.502,27.1832 149,30.5C 149.5,31 150,31.5 150.5,32C 159.851,32.8321 169.184,32.6654 178.5,31.5C 179.005,30.0815 180.005,29.4148 181.5,29.5 Z"/></g>
<g><path style="opacity:1" fill="#48d7a8" d="M 181.5,29.5 C 185.019,28.1923 188.685,28.1923 192.5,29.5C 201.744,31.1268 201.744,32.1268 192.5,32.5C 192.5,33.8333 192.5,35.1667 192.5,36.5C 194.833,36.5 197.167,36.5 199.5,36.5C 199.5,37.5 199.5,38.5 199.5,39.5C 195.308,39.8858 191.141,40.5525 187,41.5C 184.967,41.4944 183.134,41.1611 181.5,40.5C 184.833,40.5 188.167,40.5 191.5,40.5C 191.5,36.8333 191.5,33.1667 191.5,29.5C 188.167,29.5 184.833,29.5 181.5,29.5 Z"/></g>
<g><path style="opacity:1" fill="#fbee90" d="M 215.5,29.5 C 215.5,30.5 215.5,31.5 215.5,32.5C 217.735,32.2053 219.735,32.5386 221.5,33.5C 219.167,33.5 216.833,33.5 214.5,33.5C 214.232,31.901 214.566,30.5676 215.5,29.5 Z"/></g>
<g><path style="opacity:1" fill="#75788d" d="M 125.5,32.5 C 126.167,32.5 126.5,32.8333 126.5,33.5C 123.833,33.8333 121.167,34.1667 118.5,34.5C 118.5,34.1667 118.5,33.8333 118.5,33.5C 120.806,33.0074 123.139,32.6741 125.5,32.5 Z"/></g>
<g><path style="opacity:1" fill="#fbdc2e" d="M 215.5,29.5 C 214.566,30.5676 214.232,31.901 214.5,33.5C 216.833,33.5 219.167,33.5 221.5,33.5C 218.848,37.4819 215.848,41.1486 212.5,44.5C 211.662,44.1583 211.328,43.4916 211.5,42.5C 212.15,40.5648 212.483,38.5648 212.5,36.5C 210.396,36.7989 208.396,36.4656 206.5,35.5C 209.194,31.4601 212.361,27.7935 216,24.5C 216.384,26.1966 216.218,27.8632 215.5,29.5 Z"/></g>
<g><path style="opacity:1" fill="#93b7b6" d="M 148.5,35.5 C 150.435,36.1495 152.435,36.4828 154.5,36.5C 154.5,36.8333 154.5,37.1667 154.5,37.5C 152.167,37.5 149.833,37.5 147.5,37.5C 147.833,36.8333 148.167,36.1667 148.5,35.5 Z"/></g>
<g><path style="opacity:1" fill="#e1e0e6" d="M 92.5,41.5 C 88.1161,41.8256 83.7828,41.4922 79.5,40.5C 80.1925,39.4822 80.8592,38.4822 81.5,37.5C 86.5521,35.3816 90.2188,36.7149 92.5,41.5 Z"/></g>
<g><path style="opacity:1" fill="#292850" d="M 105.5,26.5 C 106.167,26.5 106.5,26.8333 106.5,27.5C 106.5,35.8333 106.5,44.1667 106.5,52.5C 105.5,52.5 104.5,52.5 103.5,52.5C 102.864,43.4355 103.53,34.7688 105.5,26.5 Z"/></g>
<g><path style="opacity:1" fill="#2d2c52" d="M 82.5,33.5 C 91.441,32.1322 96.1077,35.7988 96.5,44.5C 90.8333,44.5 85.1667,44.5 79.5,44.5C 78.7321,45.2625 78.2321,46.2625 78,47.5C 76.2727,44.6513 76.106,41.6513 77.5,38.5C 78.4287,39.6888 78.762,41.0222 78.5,42.5C 83.3633,42.8195 88.03,42.4861 92.5,41.5C 90.2188,36.7149 86.5521,35.3816 81.5,37.5C 81.5,36.8333 81.5,36.1667 81.5,35.5C 81.3284,34.5084 81.6618,33.8417 82.5,33.5 Z"/></g>
<g><path style="opacity:1" fill="#cac8d1" d="M 119.5,38.5 C 124.251,40.1413 129.251,41.1413 134.5,41.5C 129.167,41.5 123.833,41.5 118.5,41.5C 118.263,40.209 118.596,39.209 119.5,38.5 Z"/></g>
<g><path style="opacity:1" fill="#2e2d52" d="M 145.5,34.5 C 146.609,34.5569 147.609,34.8902 148.5,35.5C 148.167,36.1667 147.833,36.8333 147.5,37.5C 146.5,37.8333 145.833,38.5 145.5,39.5C 144.957,39.56 144.624,39.8933 144.5,40.5C 148.833,41.8333 153.167,41.8333 157.5,40.5C 157.376,39.8933 157.043,39.56 156.5,39.5C 156.167,38.5 155.5,37.8333 154.5,37.5C 154.5,37.1667 154.5,36.8333 154.5,36.5C 156.5,36.5 158.5,36.5 160.5,36.5C 161.11,37.391 161.443,38.391 161.5,39.5C 161.5,41.1667 161.5,42.8333 161.5,44.5C 155.794,44.1712 150.128,44.5046 144.5,45.5C 144.624,46.1067 144.957,46.44 145.5,46.5C 146.167,47.8333 147.167,48.8333 148.5,49.5C 152.684,50.1664 157.018,50.8331 161.5,51.5C 156.544,52.4941 151.544,52.8275 146.5,52.5C 140.365,48.7003 138.865,43.3669 142,36.5C 143.113,35.695 144.279,35.0283 145.5,34.5 Z"/></g>
<g><path style="opacity:1" fill="#f5f5f7" d="M 147.5,37.5 C 149.833,37.5 152.167,37.5 154.5,37.5C 155.5,37.8333 156.167,38.5 156.5,39.5C 152.833,40.8333 149.167,40.8333 145.5,39.5C 145.833,38.5 146.5,37.8333 147.5,37.5 Z"/></g>
<g><path style="opacity:1" fill="#c1c0cb" d="M 145.5,39.5 C 149.167,40.8333 152.833,40.8333 156.5,39.5C 157.043,39.56 157.376,39.8933 157.5,40.5C 153.167,41.8333 148.833,41.8333 144.5,40.5C 144.624,39.8933 144.957,39.56 145.5,39.5 Z"/></g>
<g><path style="opacity:1" fill="#555e75" d="M 102.5,25.5 C 103.791,25.2627 104.791,25.596 105.5,26.5C 103.53,34.7688 102.864,43.4355 103.5,52.5C 104.5,52.5 105.5,52.5 106.5,52.5C 106.5,44.1667 106.5,35.8333 106.5,27.5C 107.468,29.6074 107.802,31.9407 107.5,34.5C 107.5,40.8333 107.5,47.1667 107.5,53.5C 105.833,53.5 104.167,53.5 102.5,53.5C 102.5,47.8333 102.5,42.1667 102.5,36.5C 102.5,35.1667 102.5,33.8333 102.5,32.5C 102.5,30.1667 102.5,27.8333 102.5,25.5 Z"/></g>
<g><path style="opacity:1" fill="#a6a6b5" d="M 79.5,44.5 C 85.1667,44.5 90.8333,44.5 96.5,44.5C 90.923,44.8563 85.5896,45.8563 80.5,47.5C 79.596,46.791 79.2627,45.791 79.5,44.5 Z"/></g>
<g><path style="opacity:1" fill="#aaa8b8" d="M 113.5,44.5 C 119.206,44.1712 124.872,44.5046 130.5,45.5C 130.376,46.1067 130.043,46.44 129.5,46.5C 124.167,45.8333 118.833,45.1667 113.5,44.5 Z"/></g>
<g><path style="opacity:1" fill="#a2a3b2" d="M 161.5,39.5 C 162.461,41.2646 162.795,43.2646 162.5,45.5C 156.642,45.1778 150.975,45.5111 145.5,46.5C 144.957,46.44 144.624,46.1067 144.5,45.5C 150.128,44.5046 155.794,44.1712 161.5,44.5C 161.5,42.8333 161.5,41.1667 161.5,39.5 Z"/></g>
<g><path style="opacity:1" fill="#f6f0a6" d="M 211.5,42.5 C 211.328,43.4916 211.662,44.1583 212.5,44.5C 211.698,45.8847 211.031,45.718 210.5,44C 210.57,43.2352 210.903,42.7352 211.5,42.5 Z"/></g>
<g><path style="opacity:1" fill="#3a3a5c" d="M 81.5,35.5 C 81.5,36.1667 81.5,36.8333 81.5,37.5C 80.8592,38.4822 80.1925,39.4822 79.5,40.5C 83.7828,41.4922 88.1161,41.8256 92.5,41.5C 88.03,42.4861 83.3633,42.8195 78.5,42.5C 78.762,41.0222 78.4287,39.6888 77.5,38.5C 76.106,41.6513 76.2727,44.6513 78,47.5C 78.2321,46.2625 78.7321,45.2625 79.5,44.5C 79.2627,45.791 79.596,46.791 80.5,47.5C 81.2891,47.7828 81.9558,48.2828 82.5,49C 87.1548,49.4992 91.8215,49.6658 96.5,49.5C 96.5,50.5 96.5,51.5 96.5,52.5C 91.5,52.5 86.5,52.5 81.5,52.5C 74.3671,48.975 72.7004,43.6417 76.5,36.5C 78.2915,36.634 79.9582,36.3007 81.5,35.5 Z"/></g>
<g><path style="opacity:1" fill="#353357" d="M 126.5,33.5 C 127.694,34.2719 128.694,35.2719 129.5,36.5C 126.482,36.3354 123.482,36.502 120.5,37C 119.944,37.3826 119.611,37.8826 119.5,38.5C 118.596,39.209 118.263,40.209 118.5,41.5C 123.833,41.5 129.167,41.5 134.5,41.5C 135.46,47.9407 132.793,51.6074 126.5,52.5C 122.167,52.5 117.833,52.5 113.5,52.5C 113.5,51.5 113.5,50.5 113.5,49.5C 118.179,49.6658 122.845,49.4992 127.5,49C 128.381,48.2917 129.047,47.4584 129.5,46.5C 130.043,46.44 130.376,46.1067 130.5,45.5C 124.872,44.5046 119.206,44.1712 113.5,44.5C 113.401,41.7628 113.735,39.0961 114.5,36.5C 116.179,36.7148 117.179,36.0481 117.5,34.5C 117.833,34.5 118.167,34.5 118.5,34.5C 121.167,34.1667 123.833,33.8333 126.5,33.5 Z"/></g>
<g><path style="opacity:1" fill="#9b99a9" d="M 96.5,49.5 C 97.4345,50.5676 97.7678,51.901 97.5,53.5C 91.9738,53.8214 86.6405,53.4881 81.5,52.5C 86.5,52.5 91.5,52.5 96.5,52.5C 96.5,51.5 96.5,50.5 96.5,49.5 Z"/></g>
<g><path style="opacity:1" fill="#9a98a8" d="M 113.5,49.5 C 113.5,50.5 113.5,51.5 113.5,52.5C 117.833,52.5 122.167,52.5 126.5,52.5C 122.03,53.4861 117.363,53.8195 112.5,53.5C 112.232,51.901 112.566,50.5676 113.5,49.5 Z"/></g>
<g><path style="opacity:1" fill="#818095" d="M 148.5,49.5 C 153.167,49.5 157.833,49.5 162.5,49.5C 162.5,50.8333 162.5,52.1667 162.5,53.5C 156.974,53.8214 151.64,53.4881 146.5,52.5C 151.544,52.8275 156.544,52.4941 161.5,51.5C 157.018,50.8331 152.684,50.1664 148.5,49.5 Z"/></g>
</svg>
