<svg version="1.2" xmlns="http://www.w3.org/2000/svg" viewBox="191 236 264 67" width="510" height="145">
	<title>Sans titre - 1</title>
	<style>
		.s0 { fill: #4fbc99 } 
		.s1 { fill: #2b2f54 } 
		.s2 { fill: #f2dc47 } 
	</style>
	<g id="Calque 1">
		<g id="&lt;Group&gt;">
			<path id="&lt;Path&gt;" class="s0" d="m335.3 272.1l-1-1.2c-1.9-2.7-2.9-5.8-2.9-9v-24.7h6.5l1.3 1.4v5.3c2.1 0.4 4.2 0.2 6.3 0.2 2.1 0 4.3 0 6.6 0v5.9h-12.7v12.8c0 2.1 1 4.1 2.8 5.3 2.3 1.4 4.8 2.2 7.8 2.1 5.8-0.3 11.6 0 17.4-0.1 2.2-0.1 4.4 0.3 6.7-0.9 1.4-0.7 3.8-0.7 5.3 0.1 1.7 0.9 3.4 0.6 5.1 0.8 1.7-3 4-5.3 7.4-6.9h15.6c0.5 0.8 1.1 1.7 1.7 2.8h9.4c-0.2 0.2 1.1 1.3 2.1 1.8-0.9 1-1.5 1.6-2.1 2.3h-10.4v5.8h9c2.2 2.5 2.2 2.5 0.5 5.1h-9c-0.7 1.1-1.3 2.1-1.9 3.1-3.5 0-7 0-10.5 0-4.7 0-8.8-2.5-11.5-6.8-0.3-0.4-0.7-0.7-1.3-1.3-3 1.4-6.6 1.8-9.7 1-5.2-1.4-10.4-0.5-15.6-0.9-3.2 0-6.5 0-9.7 0.1-0.4 0-0.9 0.6-1.3 0.9-0.6-0.3-1.3-0.8-2-0.9-1.1-0.2-2.3 0-3.4-0.1-1.2-0.2-2.4-0.7-3.5-1-0.3-0.3-0.5-0.7-0.8-1-0.7-0.7-1.5-1.3-2.2-2z"/>
			<path id="&lt;Path&gt;" class="s0" d="m226.5 277.1c-1.4-1.1-1.2-2.9-2-4.4-0.6-1.3-1.3-2.7-2-4.1-0.1-0.2-0.5-0.3-1-0.6-3.1 1.6-2.7 5.8-5.4 8q-3.5 0-7.3 0-0.6-1-1.2-2c-3.6-6.3-7-12.8-10.5-19.2-1.4-2.5-3.1-5-4-7.8-0.3-0.8-0.4-1.7-0.6-2.8 2.8 0 5.3 0 7.5 0 4.1 7.7 8.2 15.3 12.3 23.1 3-1.2 3.2-4.2 4.2-6.4 0.8-1.8-0.5-3.5-1.6-4.8-2.3-2.8-3-6.5-5.1-9.4-0.4-0.5-0.2-1.5-0.3-2.4 2.4 0 4.5 0 7.2 0 1.4 2.4 2.9 5 4.6 8 1.4-2.7 2.8-5.3 4.3-8 2.6 0 5.2 0 8.1 0-2.1 5.8-5.6 10.5-8.2 15.8 1.2 2.4 2.4 4.8 3.9 7.8 5.2-7.9 8.5-16.1 13.3-23.6 2.1 0 4.2 0 6.8 0-0.2 0.9-0.2 2-0.6 2.9-4 7.5-8 15-12.1 22.7-0.2 0.4-0.4 0.7-0.8 1.2q-1.5 3-3 6c-2.2 0-4.3 0-6.5 0z"/>
			<path id="&lt;Path&gt;" class="s0" d="m254.5 272.6c-0.7-0.9-1.7-2.5-2.6-3.7-0.9-1.3-1.4-2.9-1.4-4.5 0-1.6 0.5-3.2 1.5-4.5 4.3-6.3 10.6-8.7 18.2-7.7 5.2 0.7 9.1 4.1 11.6 8.8h2.5v-4.1c-1.3-3.3-3.5-5.3-6.8-6.7h-21.6c-0.4-0.7-1.2-1.5-1.4-2.3-0.2-1.2-0.3-2.7 1.8-3.8 6.6 0 13.9-0.4 21.1 0.1 4.4 0.3 8.5 2.4 11.5 5.9 2.4 2.8 3.5 5.9 3.5 9.5q0 6.3 0 12.5c-1.2 1.4-1 3.1-1 5h-5l-1.8-1.5v-6.9l-2.6-2.1c-1.3 3.7-3 6.5-6.6 7.5 0-3 0.2-6 0-9-0.2-1.6-0.9-3.3-1.2-4.3-1.4-1.1-2.4-1.8-3.5-2.7-0.9 0-2.1 0-3.3 0-3.7-0.4-6.3 1.1-8 4.1-0.8 1.3-0.6 2.9 0.3 4l1.8 2.4c0.7 1 1.8 1.5 3 1.5h2.9v6q-1.7 0-3.4 0c-2.4 0-4.7 0.2-6.8-1.6-0.5-0.5-2.4-1.6-2.7-1.9z"/>
			<path id="&lt;Compound Path&gt;" class="s1" d="m226.5 277.1h6.5l3-6q0.8 0 1.5 0c1.2 0 2.3 0.1 3.5 0 4.3-0.3 8.5 0 12 3 0.3 0.2 4.1 4.3 5.3 6.4 0 2.8 0 5.6 0 8.7h-27.1c1.4 3.8 2.8 6.4 6.1 7.2q1.1 0.2 2.3 0.5c0.9 0.3 1.3 0.1 1.9 0.2q3.5 0 7 0 4.5 0 9 0c2.2 1.2 1.4 3.3 1.4 4.9h-18.1c-3.3 0-6.6-0.8-9.5-2.5q-0.1 0-0.2-0.1c-4.1-2.4-6.5-6.9-6.5-11.6q0-1.5-0.1-3c-0.2-2.9 0.6-5.4 2-7.7zm9.6-0.3c-1.3 1.1-2.5 2.2-3.9 3.3-0.6 0.6-0.9 1.5-0.7 2.3 0.1 0.6 0.2 1.1 0.5 1.7 6.5-0.1 13 0.2 19.5-0.1-0.7-4.7-3.9-7.7-8.1-7.9-1.7 0-3.5 0-5.3 0-0.7 0-1.4 0.2-2 0.7z"/>
			<path id="&lt;Path&gt;" class="s1" d="m286.4 277.1h5c0-1.9-0.2-3.6 1-5 1.1-0.3 1.5-0.3 2-0.6 3.1-1.7 6-1.4 8.9-1.4 0.7 1.4 1.7 2.5 3.3 3.1 0.7 0.2 1.1 1.2 1.7 1.9-0.2 0.3-0.5 0.9-0.8 1-0.8 0.1-1.6 0-2.4 0-3.4 0.2-6.8 0.4-9.5 0.6-2.6 1.7-3.7 3.5-3.4 6.7-0.4-0.4 0.1 0.1 0.7 0.7h25.2c0.6 4.4-0.2 8.2-2.7 11.9-1.6 2.4-3.2 3.2-4.9 4.2-2.3 1.3-4.8 1.9-7.3 1.9h-18.6q0-2.3 0-4.7c0.3-0.3 0.7-1 1.1-1 6.2-0.1 12.5-0.1 18.8-0.1l5.7-4.3v-2.8h-25.6c-0.5-4.3-0.4-8.3 1.8-12.1z"/>
			<path id="&lt;Path&gt;" class="s1" d="m347.2 277.1c0.4-0.3 0.9-0.9 1.3-0.9 3.2-0.1 6.5-0.1 9.7-0.1 3 3.8 1.8 8.3 2.1 13h-27.1c0.5 3.4 2.8 4.9 4.7 6.8 1.3 0.5 1.4 0.4 2.7 0.8 1 0.3 1.4 0.3 1.8 0.4 0.9 0.1 1.9 0 2.8 0q7.5 0 15 0v5c-6 0-13 0.9-18.9 0.1-2.2-0.3-3.7-0.9-5.5-1.6-2.6-0.9-4.1-2.3-6.1-4.2-1-1-1.9-2-2.4-3.5q-0.1-0.1-0.1-0.2c-0.6-1-0.9-2.1-0.9-3.2 0-1.5 0-3.1 0-4.7-0.2-4.9 1.3-9 6-11.3 1-0.5 1.6-1.7 3-1.4 0.7 0.7 1.5 1.3 2.2 2 0.3 0.3 0.5 0.7 0.8 1q-2.4 2.8-4.9 5.6v3.2h19.8c-0.6-4.9-1.3-5.5-6-6.8z"/>
			<path id="&lt;Path&gt;" class="s0" d="m308.3 275.1c-0.6-0.7-1-1.7-1.7-1.9-1.6-0.6-2.6-1.7-3.3-3.1-1.5-2.3-2-4.8-2-7.6 0.1-8.3 0-16.7 0-25.4 2.7 0.3 5.5-0.9 8 1.3v5.5h12.7v6.1h-12.7c0 3 0 6 0 8.9 0.1 2.9-0.5 5.9 1.9 8.6q1.4 0.8 3.4 1.8c1.1 0.5 2.2 0.8 3.4 0.8 2.1 0 4.4 0 6.7 0 0.1 0 0.2 0.2 0.5 0.4 0 1.7 0 3.4 0 5.7-5.7-0.4-11.3 0.8-16.9-1.1z"/>
			<path id="&lt;Path&gt;" class="s1" d="m267.4 276.1q0-3 0-6 0-6 0-12c1.2 0 2.4 0 3.3 0 1.1 0.9 2.1 1.6 3.5 2.7 0.3 1 1 2.7 1.2 4.3 0.2 3 0 6 0 9 0 9.2 0 18.3 0 27.7-2.5 0.7-5.1 0-8 0.5 0-9 0-17.6 0-26.2z"/>
			<path id="&lt;Path&gt;" class="s2" d="m437.5 291c-0.3-3 1.1-12.6 1.7-14.8q-5.2 0-9.8 0c-1.6-3 16.6-19.9 18-19.9-2.7 4.4-2.9 9.1-4.6 13.8 3.9 0 7.4 0 11.8 0-2.2 3.3-16.8 20.3-17.1 20.9z"/>
		</g>
	</g>
</svg>